<svg width="266" height="260" viewBox="0 0 266 260" fill="none" xmlns="http://www.w3.org/2000/svg">
<g clip-path="url(#clip0_4809_189810)">
<path d="M168.868 58.4731H97.1923C95.5589 58.4751 93.993 59.1257 92.8381 60.2822C91.6831 61.4387 91.0334 63.0067 91.0314 64.6423V224.157L90.21 224.408L72.6268 229.8C71.7935 230.054 70.8934 229.967 70.1242 229.558C69.3549 229.148 68.7793 228.45 68.5238 227.616L16.222 56.5442C15.9675 55.7097 16.0542 54.8082 16.4632 54.0378C16.8722 53.2674 17.5699 52.691 18.403 52.4355L45.4986 44.1276L124.05 20.0514L151.145 11.7435C151.557 11.6164 151.991 11.572 152.42 11.6128C152.85 11.6536 153.267 11.7789 153.648 11.9813C154.029 12.1838 154.367 12.4595 154.641 12.7928C154.916 13.126 155.122 13.5102 155.248 13.9233L168.617 57.6505L168.868 58.4731Z" fill="#EBEBEB"/>
<path d="M184.508 57.6507L168.395 4.94934C168.127 4.07123 167.689 3.25463 167.106 2.54619C166.522 1.83775 165.805 1.25137 164.996 0.820533C164.186 0.389701 163.299 0.122864 162.386 0.0352831C161.474 -0.0522983 160.552 0.0410911 159.676 0.310105L121.581 11.9863L43.0342 36.0667L4.93955 47.7471C3.16987 48.2912 1.68809 49.5162 0.819469 51.1532C-0.0491559 52.7902 -0.233664 54.7054 0.306452 56.4785L55.3764 236.59C55.8152 238.021 56.7005 239.274 57.9025 240.165C59.1044 241.055 60.5597 241.536 62.0549 241.538C62.7469 241.538 63.435 241.434 64.0961 241.229L90.21 233.226L91.0314 232.971V232.111L90.21 232.362L63.8538 240.444C62.2918 240.921 60.6046 240.758 59.1624 239.99C57.7203 239.223 56.6409 237.915 56.161 236.352L1.09521 56.2359C0.857439 55.4614 0.774569 54.6476 0.851344 53.841C0.928118 53.0344 1.16302 52.2509 1.54262 51.5353C1.92222 50.8198 2.43906 50.1862 3.06352 49.671C3.68799 49.1557 4.40782 48.7689 5.1818 48.5326L43.2765 36.8523L121.824 12.776L159.918 1.09566C160.505 0.916256 161.116 0.824783 161.729 0.824211C163.047 0.827172 164.328 1.25242 165.387 2.03766C166.445 2.8229 167.225 3.92688 167.611 5.18788L183.65 57.6507L183.904 58.4732H184.759L184.508 57.6507Z" fill="#3F3D56"/>
<path d="M50.3881 52.5699C49.5964 52.5694 48.8258 52.3148 48.1893 51.8435C47.5527 51.3723 47.0838 50.7091 46.8512 49.9514L41.5609 32.6482C41.4187 32.1834 41.3694 31.6951 41.4157 31.2112C41.462 30.7273 41.6031 30.2573 41.8309 29.828C42.0586 29.3988 42.3686 29.0186 42.7431 28.7093C43.1175 28.4 43.5492 28.1676 44.0134 28.0253L116.276 5.87226C117.213 5.58582 118.226 5.68351 119.091 6.1439C119.957 6.60428 120.605 7.38974 120.893 8.32789L126.183 25.6313C126.469 26.57 126.371 27.584 125.911 28.4506C125.452 29.3173 124.667 29.966 123.731 30.2544L51.468 52.4075C51.1181 52.515 50.7541 52.5698 50.3881 52.5699Z" fill="#6C63FF"/>
<path d="M78.1007 18.4888C82.6374 18.4888 86.3152 14.806 86.3152 10.2632C86.3152 5.72032 82.6374 2.0376 78.1007 2.0376C73.564 2.0376 69.8862 5.72032 69.8862 10.2632C69.8862 14.806 73.564 18.4888 78.1007 18.4888Z" fill="#6C63FF"/>
<path d="M78.1007 15.4721C80.9735 15.4721 83.3024 13.1401 83.3024 10.2634C83.3024 7.3867 80.9735 5.05469 78.1007 5.05469C75.2279 5.05469 72.899 7.3867 72.899 10.2634C72.899 13.1401 75.2279 15.4721 78.1007 15.4721Z" fill="white"/>
<path d="M247.518 239.436H108.693C107.767 239.435 106.88 239.066 106.225 238.411C105.571 237.755 105.203 236.867 105.202 235.94V69.3719C105.203 68.445 105.571 67.5564 106.225 66.901C106.88 66.2457 107.767 65.877 108.693 65.876H247.518C248.443 65.877 249.33 66.2457 249.985 66.9011C250.639 67.5564 251.008 68.445 251.009 69.3719V235.94C251.008 236.867 250.639 237.755 249.985 238.411C249.33 239.066 248.443 239.435 247.518 239.436Z" fill="#EBEBEB"/>
<path d="M183.65 57.6504H97.1923C95.3413 57.653 93.5668 58.3905 92.2579 59.7011C90.9491 61.0118 90.2126 62.7886 90.21 64.6421V232.362L91.0314 232.111V64.6421C91.0334 63.0066 91.6831 61.4386 92.8381 60.2821C93.993 59.1255 95.5589 58.4749 97.1923 58.4729H183.904L183.65 57.6504ZM259.018 57.6504H97.1923C95.3413 57.653 93.5668 58.3905 92.2579 59.7011C90.9491 61.0118 90.2126 62.7886 90.21 64.6421V253.008C90.2126 254.862 90.9491 256.638 92.2579 257.949C93.5668 259.26 95.3413 259.997 97.1923 260H259.018C260.869 259.997 262.643 259.26 263.952 257.949C265.261 256.638 265.997 254.862 266 253.008V64.6421C265.997 62.7886 265.261 61.0118 263.952 59.7011C262.643 58.3905 260.869 57.653 259.018 57.6504ZM265.179 253.008C265.177 254.644 264.527 256.212 263.372 257.368C262.217 258.525 260.651 259.175 259.018 259.177H97.1923C95.5589 259.175 93.993 258.525 92.8381 257.368C91.6831 256.212 91.0334 254.644 91.0314 253.008V64.6421C91.0334 63.0066 91.6831 61.4386 92.8381 60.2821C93.993 59.1255 95.5589 58.4749 97.1923 58.4729H259.018C260.651 58.4749 262.217 59.1255 263.372 60.2821C264.527 61.4386 265.177 63.0066 265.179 64.6421V253.008Z" fill="#3F3D56"/>
<path d="M215.892 75.7469H140.318C139.338 75.7458 138.399 75.3554 137.706 74.6615C137.013 73.9676 136.623 73.0267 136.622 72.0454V53.9491C136.623 52.9677 137.013 52.0269 137.706 51.3329C138.399 50.639 139.338 50.2487 140.318 50.2476H215.892C216.872 50.2487 217.811 50.639 218.504 51.3329C219.197 52.0269 219.587 52.9677 219.588 53.9491V72.0454C219.587 73.0267 219.197 73.9676 218.504 74.6615C217.811 75.3554 216.872 75.7458 215.892 75.7469Z" fill="#6C63FF"/>
<path d="M178.105 51.4814C182.642 51.4814 186.319 47.7987 186.319 43.2559C186.319 38.713 182.642 35.0303 178.105 35.0303C173.568 35.0303 169.891 38.713 169.891 43.2559C169.891 47.7987 173.568 51.4814 178.105 51.4814Z" fill="#6C63FF"/>
<path d="M178.105 48.2659C180.868 48.2659 183.108 46.0228 183.108 43.2558C183.108 40.4887 180.868 38.2456 178.105 38.2456C175.342 38.2456 173.102 40.4887 173.102 43.2558C173.102 46.0228 175.342 48.2659 178.105 48.2659Z" fill="white"/>
</g>
<defs>
<clipPath id="clip0_4809_189810">
<rect width="266" height="260" fill="white"/>
</clipPath>
</defs>
</svg>
